<?xml version="1.0" encoding="utf-8"?>
<!DOCTYPE svg PUBLIC "-//W3C//DTD SVG 1.1//EN" "http://www.w3.org/Graphics/SVG/1.1/DTD/svg11.dtd">
<svg version="1.1" xmlns="http://www.w3.org/2000/svg" xmlns:xlink="http://www.w3.org/1999/xlink" x="0px" y="0px" width="80px"
	 height="20px" viewBox="0 0 80 20" enable-background="new 0 0 80 20" xml:space="preserve">
<g id="checked:hover">
	<path fill="#FEF6A8" d="M69.729,2.259c0.149-0.385,0.394-0.385,0.543,0l1.959,5.049c0.149,0.385,0.609,0.699,1.021,0.699
		l1.75,0.169c0.412,0,0.493,0.219,0.18,0.487l-1.31,0.981c-0.313,0.268-0.497,0.816-0.407,1.22l1.472,6.562
		c0.09,0.403-0.118,0.547-0.463,0.319l-3.848-2.539c-0.345-0.228-0.907-0.228-1.252,0l-3.848,2.539
		c-0.345,0.228-0.553,0.084-0.463-0.319l1.047-4.707c0.09-0.403-0.094-0.952-0.407-1.22l-3.518-3.006
		c-0.313-0.268-0.232-0.487,0.18-0.487h4.381c0.412,0,0.872-0.314,1.021-0.699L69.729,2.259z"/>
	<path display="none" fill="#80722D" d="M75.027,13.229l-0.026-0.026l-0.821,0.821l0.757,3.402c0.061,0.273-0.015,0.428-0.178,0.428
		c-0.077,0-0.174-0.035-0.285-0.108l-3.848-2.539c-0.173-0.114-0.399-0.171-0.626-0.171s-0.453,0.057-0.626,0.171l-3.848,2.539
		c-0.111,0.073-0.208,0.108-0.285,0.108c-0.163,0-0.238-0.154-0.178-0.428l1.047-4.707c0.09-0.403-0.094-0.952-0.407-1.22
		l-3.518-3.006c-0.313-0.268-0.232-0.487,0.18-0.487h4.381c0.412,0,0.872-0.314,1.021-0.699l1.961-5.049
		C69.803,2.066,69.901,1.97,70,1.97s0.197,0.096,0.271,0.289l0.586,1.511l0.773-0.772l-0.427-1.101C70.87,1.037,70.198,0.97,70,0.97
		s-0.87,0.067-1.204,0.927l-1.961,5.049c-0.01,0.011-0.075,0.055-0.109,0.062l-4.36-0.001c-0.934,0-1.231,0.61-1.3,0.797
		c-0.069,0.187-0.239,0.844,0.471,1.451l3.518,3.005c0.039,0.043,0.086,0.186,0.079,0.25l-1.046,4.7
		c-0.132,0.595,0.052,0.983,0.229,1.205c0.224,0.279,0.561,0.439,0.925,0.439c0.279,0,0.562-0.093,0.836-0.273l3.848-2.539
		c-0.001,0-0.001,0.001,0.001,0.001c0.006,0,0.035-0.007,0.074-0.007c0.048,0,0.081,0.01,0.089,0.014l3.834,2.531
		c0.274,0.181,0.556,0.273,0.836,0.273c0.364,0,0.701-0.16,0.925-0.439c0.178-0.222,0.361-0.61,0.229-1.206L75.027,13.229z"/>
	<polygon fill="#807640" points="77.548,5 75.002,7.547 72.456,5 71.041,6.415 73.587,8.961 71.044,11.505 72.457,12.919
		75.001,10.375 77.546,12.919 78.96,11.505 76.415,8.96 78.962,6.414 	"/>
	<path fill="#80722D" d="M75.172,13.897c0,0-0.133-0.516-0.651-0.349c-0.516,0.166-0.302,0.674-0.302,0.674l0.719,3.204
		c0.061,0.273-0.016,0.428-0.178,0.428c-0.078,0-0.174-0.035-0.285-0.107l-3.848-2.539c-0.174-0.115-0.4-0.172-0.627-0.172
		s-0.453,0.057-0.625,0.172l-3.848,2.539c-0.111,0.072-0.209,0.107-0.285,0.107c-0.164,0-0.24-0.154-0.178-0.428l1.047-4.707
		c0.09-0.402-0.094-0.951-0.408-1.219l-3.518-3.007c-0.314-0.269-0.232-0.487,0.18-0.487h4.383c0.412,0,0.871-0.314,1.021-0.699
		l1.959-5.049C69.803,2.066,69.902,1.971,70,1.971s0.197,0.096,0.271,0.288l0.461,1.158c0,0,0.255,0.409,0.635,0.219
		c0.44-0.221,0.227-0.66,0.227-0.66l-0.389-1.078C70.869,1.037,70.197,0.971,70,0.971s-0.869,0.066-1.203,0.926l-1.961,5.049
		c-0.01,0.012-0.074,0.056-0.109,0.062l-4.361-0.001c-0.934,0-1.23,0.609-1.301,0.796c-0.068,0.187-0.238,0.844,0.471,1.451
		l3.52,3.007c0.037,0.041,0.086,0.186,0.078,0.25l-1.045,4.699c-0.133,0.596,0.051,0.984,0.229,1.205
		c0.225,0.279,0.561,0.439,0.926,0.439c0.279,0,0.561-0.092,0.836-0.273l3.848-2.539c-0.002,0-0.002,0.002,0,0.002
		c0.006,0,0.035-0.008,0.074-0.008c0.049,0,0.08,0.01,0.088,0.014l3.836,2.531c0.273,0.182,0.557,0.273,0.836,0.273
		c0.363,0,0.701-0.16,0.924-0.439c0.178-0.221,0.361-0.609,0.23-1.205L75.172,13.897z"/>
</g>
<g id="checked">
	<path fill="#FEF6A8" d="M54.759,18.355c-0.18,0-0.369-0.064-0.561-0.191l-3.848-2.539c-0.083-0.055-0.215-0.088-0.351-0.088
		s-0.268,0.033-0.351,0.088l-3.848,2.539c-0.191,0.127-0.381,0.191-0.561,0.191c-0.212,0-0.407-0.092-0.535-0.252
		c-0.109-0.136-0.22-0.383-0.131-0.784l1.047-4.708c0.05-0.222-0.071-0.584-0.243-0.731L41.86,8.874
		c-0.451-0.386-0.378-0.756-0.326-0.897c0.053-0.141,0.237-0.47,0.831-0.47h4.381c0.206,0,0.48-0.188,0.556-0.38l1.961-5.049
		C49.476,1.529,49.85,1.47,50,1.47s0.524,0.059,0.737,0.607l1.959,5.049c0.075,0.191,0.35,0.38,0.556,0.38h4.383
		c0.594,0,0.778,0.329,0.831,0.47c0.052,0.142,0.125,0.512-0.326,0.897l-3.518,3.006c-0.173,0.147-0.294,0.51-0.244,0.731
		l1.047,4.708c0.089,0.401-0.021,0.647-0.131,0.784C55.166,18.264,54.971,18.355,54.759,18.355z"/>
	<path fill="#80722D" d="M50,1.97c0.099,0,0.196,0.096,0.271,0.289l1.959,5.049c0.149,0.385,0.609,0.699,1.021,0.699h4.383
		c0.412,0,0.493,0.219,0.18,0.487L54.297,11.5c-0.313,0.268-0.497,0.816-0.407,1.22l1.047,4.708
		c0.061,0.273-0.015,0.428-0.178,0.428c-0.077,0-0.174-0.035-0.285-0.108l-3.848-2.539c-0.173-0.113-0.399-0.171-0.626-0.171
		s-0.453,0.058-0.626,0.171l-3.848,2.539c-0.111,0.073-0.208,0.108-0.285,0.108c-0.163,0-0.238-0.154-0.178-0.428l1.047-4.708
		c0.09-0.403-0.094-0.952-0.407-1.22l-3.518-3.006c-0.313-0.268-0.232-0.487,0.18-0.487h4.381c0.412,0,0.872-0.314,1.021-0.699
		l1.961-5.049C49.804,2.066,49.901,1.97,50,1.97 M50,0.97c-0.198,0-0.87,0.067-1.204,0.927l-1.961,5.049
		c-0.01,0.011-0.075,0.055-0.109,0.062l-4.36-0.001c-0.934,0-1.231,0.61-1.3,0.797c-0.069,0.187-0.239,0.844,0.471,1.451
		l3.518,3.005c0.039,0.043,0.086,0.186,0.079,0.25l-1.046,4.701c-0.132,0.595,0.052,0.983,0.229,1.205
		c0.224,0.279,0.561,0.439,0.925,0.439c0.28,0,0.562-0.093,0.836-0.273l3.848-2.539c-0.001,0-0.001,0.001,0.001,0.001
		c0.006,0,0.035-0.007,0.074-0.007c0.048,0,0.081,0.01,0.089,0.014l3.834,2.531c0.274,0.181,0.557,0.273,0.836,0.273
		c0.364,0,0.701-0.16,0.925-0.439c0.178-0.222,0.361-0.61,0.229-1.206l-1.046-4.707c-0.006-0.058,0.041-0.2,0.086-0.248l3.512-3
		c0.71-0.607,0.54-1.264,0.471-1.451c-0.068-0.187-0.366-0.797-1.3-0.797h-4.383c-0.014-0.006-0.079-0.05-0.098-0.08l-1.95-5.03
		C50.87,1.037,50.198,0.97,50,0.97L50,0.97z"/>
</g>
<g id="unchecked:hover">
	<path opacity="0.7" fill="#5A563B" d="M35.414,14.96c0,0-0.133-0.516-0.651-0.349c-0.516,0.166-0.302,0.674-0.302,0.674
		l0.477,2.142c0.061,0.273-0.016,0.428-0.178,0.428c-0.078,0-0.174-0.035-0.285-0.107l-3.848-2.539
		c-0.174-0.115-0.4-0.172-0.627-0.172s-0.453,0.057-0.625,0.172l-3.848,2.539c-0.111,0.072-0.209,0.107-0.285,0.107
		c-0.164,0-0.24-0.154-0.178-0.428l1.047-4.707c0.09-0.402-0.094-0.951-0.408-1.219l-3.518-3.007
		c-0.314-0.269-0.232-0.487,0.18-0.487h4.383c0.412,0,0.871-0.314,1.021-0.699l1.959-5.049C29.803,2.066,29.902,1.971,30,1.971
		s0.197,0.096,0.271,0.288l1.377,3.538c0,0,0.255,0.409,0.635,0.219c0.44-0.221,0.227-0.66,0.227-0.66l-0.607-1.658l-0.697-1.801
		C30.869,1.037,30.197,0.971,30,0.971s-0.869,0.066-1.203,0.926l-1.961,5.049c-0.01,0.012-0.074,0.056-0.109,0.062l-4.361-0.001
		c-0.934,0-1.23,0.609-1.301,0.796c-0.068,0.187-0.238,0.844,0.471,1.451l3.52,3.007c0.037,0.041,0.086,0.186,0.078,0.25
		l-1.045,4.699c-0.133,0.596,0.051,0.984,0.229,1.205c0.225,0.279,0.561,0.439,0.926,0.439c0.279,0,0.561-0.092,0.836-0.273
		l3.848-2.539c-0.002,0-0.002,0.002,0,0.002c0.006,0,0.035-0.008,0.074-0.008c0.049,0,0.08,0.01,0.088,0.014l3.836,2.531
		c0.273,0.182,0.557,0.273,0.836,0.273c0.363,0,0.701-0.16,0.924-0.439c0.178-0.221,0.361-0.609,0.23-1.205L35.414,14.96z"/>
	<polygon fill="#807640" points="39,7.96 36,7.96 36,4.96 34,4.96 34,7.96 31,7.96 31,9.959 34,9.959 34,12.96 36,12.96 36,9.959
		39,9.959 	"/>
</g>
<g id="unchecked">
	<path opacity="0.7" fill="#5A563B" d="M10,1.97c0.098,0,0.197,0.096,0.271,0.289l1.959,5.049c0.149,0.385,0.609,0.699,1.021,0.699
		h4.383c0.412,0,0.493,0.219,0.18,0.487L14.297,11.5c-0.313,0.268-0.497,0.816-0.407,1.22l1.047,4.707
		c0.061,0.273-0.015,0.428-0.178,0.428c-0.077,0-0.174-0.035-0.285-0.108l-3.848-2.539c-0.172-0.114-0.399-0.171-0.626-0.171
		s-0.454,0.057-0.626,0.171l-3.848,2.539c-0.111,0.073-0.208,0.108-0.285,0.108c-0.163,0-0.239-0.154-0.178-0.428L6.11,12.72
		c0.09-0.403-0.094-0.951-0.407-1.22L2.185,8.494c-0.313-0.268-0.233-0.487,0.18-0.487h4.382c0.413,0,0.872-0.314,1.021-0.699
		l1.96-5.049C9.803,2.066,9.901,1.97,10,1.97 M10,0.97c-0.198,0-0.87,0.067-1.204,0.927l-1.96,5.049
		c-0.01,0.011-0.075,0.055-0.109,0.062L2.365,7.007c-0.934,0-1.231,0.61-1.3,0.796C0.996,7.99,0.826,8.647,1.535,9.254l3.519,3.007
		c0.038,0.041,0.086,0.185,0.079,0.249l-1.046,4.7c-0.133,0.595,0.051,0.983,0.229,1.205c0.224,0.279,0.561,0.439,0.925,0.439
		c0.28,0,0.562-0.093,0.836-0.274l3.848-2.538c-0.001,0-0.001,0.001,0,0.001c0.006,0,0.036-0.007,0.075-0.007
		c0.048,0,0.081,0.01,0.088,0.014l3.834,2.531c0.274,0.181,0.557,0.273,0.836,0.273c0.364,0,0.701-0.16,0.925-0.439
		c0.178-0.222,0.361-0.61,0.229-1.206l-1.047-4.706c-0.006-0.058,0.041-0.2,0.086-0.248l3.512-3c0.71-0.607,0.54-1.264,0.471-1.451
		c-0.068-0.187-0.366-0.797-1.3-0.797h-4.383c-0.014-0.006-0.079-0.05-0.098-0.08l-1.95-5.03C10.87,1.037,10.198,0.97,10,0.97
		L10,0.97z"/>
</g>
</svg>
